<?xml version="1.0" encoding="UTF-8"?>
<svg width="40" height="40" version="1.1" xmlns="http://www.w3.org/2000/svg">
 <path d="m20 .173c11.046 0 20 8.9541 20 20 0 11.046-8.9544 20-20 20s-20-8.9541-20-20c0-11.046 8.9544-20 20-20z" fill="#e27c3f" stroke-width=".3125"/>
 <path d="m12.258 11.425s-4.9934 4.9338-6.9938 6.91v.04719c-.0775.04781-.15156.10281-.21906.16968-.48312.47688-.48312 1.2503 0 1.7275.065313.06469.13719.11906.21219.16594l-.00188.04188c2.0266 2.0025 8.5328 8.4309 8.5328 8.4309l8.0869-7.9906z" fill="#bdc3c7" stroke-width=".3125"/>
 <path d="m6.1003 19.485-.00125-.000938.0003125.000313zm-1.1025.66156.22031.22094c-.076562-.076875-.13688-.16281-.18906-.25219zm16.525-14.35-14.539 14.568-.00281.0031c-.48688.48781-1.2762.48781-1.7628 0l.88094.88284s16.39 16.422 13.008 13.034l.0425-.0022c.04813.07594.10344.14844.16969.21469.48656.48781 1.2759.48781 1.7625 0 .06812-.06844.12406-.14312.17344-.22156h.04781c2.6531-2.6581 14.321-14.349 14.321-14.349z" fill="#ebedef" stroke-width=".3125"/>
 <path d="m21.547 18.314-4.6406-4.6406-5.0822 5.0825 4.6406 4.6406zm.88375.88375-1.105 1.1047 5.5244 5.5247 1.105-1.105zm-3.0934 3.0934 5.5244 5.5244 1.1047-1.1047-5.5244-5.5244zm-1.9888 1.9888 5.5244 5.5244 1.1047-1.1047-5.5244-5.5244zm-7.5131-3.5353 11.048 11.048 1.105-1.1047-11.048-11.048z" fill="#bdc3c7" stroke-width=".3125"/>
 <path d="m22.91 10.985-1.4003 1.4.4475-2.3531-.73031-.73031-2.5309 2.5309.73562.73562 1.3897-1.3897-.44188 2.3375.73688.73688 2.5309-2.5309zm.57969 3.4972 1.2175 1.2172.51594-.51594-1.2172-1.2172.40219-.40219 1.3119 1.3119.54031-.54031-2.0959-2.0956-2.5309 2.5309 2.1338 2.1338.57312-.57312-1.35-1.35zm5.7712 2.8538-1.6828 1.1472 1.0225-1.8072-.74-.74-1.8081 1.0253 1.1494-1.6844-.74281-.74281-1.9678 3.0938.76688.76688 2.0356-1.1516-1.1497 2.0375.76688.76688 3.0888-1.9728zm2.36 3.7822c.23-.29438.32031-.58688.27094-.87688-.049375-.29031-.23594-.59688-.55938-.92031-.26344-.26344-.50406-.43781-.72156-.52312-.2175-.085-.42188-.1075-.61281-.06719-.19094.04031-.35156.12531-.48188.25531-.19781.19812-.28719.43437-.26719.70969.01844.27375.16062.62094.42625 1.0409.16312.25531.24781.43781.25375.54719.0059.10969-.02406.19688-.08969.2625-.06906.06906-.16.09937-.2725.09156-.11281-.0078-.22531-.06813-.33688-.17938-.14969-.14969-.21344-.31625-.19156-.49906.01406-.11281.07313-.23781.17781-.37469l-.79062-.69719c-.23344.2775-.35031.58156-.35031.91312 0 .33156.215.7125.64562 1.1428.245.245.48344.41281.71531.50312.23188.09031.46156.11188.68812.06469.22688-.04687.42125-.15188.58344-.31406.13781-.13812.22906-.29656.27344-.47562.04438-.17875.03031-.38-.04219-.60344-.0725-.22312-.24281-.5425-.51125-.95781-.10938-.16688-.16562-.28562-.16906-.35594-.0059-.07031.01156-.125.05188-.16562.05531-.05531.125-.07906.20969-.07156.08469.0075.1725.05687.26344.14781.11062.11062.17094.22312.18188.3375.01094.11438-.03094.23875-.125.37188z" fill="#808c8d" stroke-width=".3125"/>
</svg>
