<?xml version="1.0" encoding="UTF-8"?>
<!-- Generator: Adobe Illustrator 18.1.1, SVG Export Plug-In . SVG Version: 6.00 Build 0)  -->
<svg width="40" height="40" enable-background="new -191 193 128 128" version="1.1" viewBox="-191 193 40 40" xml:space="preserve" xmlns="http://www.w3.org/2000/svg" xmlns:xlink="http://www.w3.org/1999/xlink">
<path d="m-171 193c11.031 0 20 8.9688 20 20s-8.9688 20-20 20-20-8.9688-20-20 8.9688-20 20-20z" fill="#2c67ce" stroke-width=".3125"/>
<linearGradient id="SVGID_1_" x1="-126.5" x2="-126.5" y1="228" y2="297" gradientTransform="matrix(.3125 0 0 -.3125 -131.31 293.94)" gradientUnits="userSpaceOnUse">
	<stop stop-color="#F0CC59" offset="0"/>
	<stop stop-color="#F7E4A9" offset="1"/>
</linearGradient>
<path d="m-170.84 201.12c4.2188 0 7.6562 3.4375 7.6562 7.6562 0 1.8438-.59375 3.5625-1.375 4.8438-.40625.40625-.78125 1.1875-.96875 1.5625-.5625 1.0938-1.4688 6.4062-2.625 6.9062-.90625.375-1.625.59375-2.6562.59375s-1.7188-.21875-2.625-.59375c-1.1562-.5-2.0625-5.8125-2.6875-6.9062-.21875-.40625-.53125-.875-.96875-1.5625-.78125-1.2812-1.375-3-1.375-4.8438-.0312-4.2188 3.4062-7.6562 7.625-7.6562z" fill="url(#SVGID_1_)" stroke-width=".3125"/>
<path d="m-166.84 209.09c-.40625-.4375-.78125-.375-1-.34375-.65625.1875-.9375 1.0312-1 1.3125-.0625.3125-.125.6875-.1875 1.0938-.15625 0-.28125.0312-.46875 0-.25 0-.4375-.0625-.625-.125.0937-.0937.15625-.21875.21875-.34375.375-.6875.375-1.4688.0625-1.9688-.21875-.34375-.59375-.53125-1-.53125-.4375 0-.78125.15625-1 .53125-.3125.5-.3125 1.2812.0625 1.9688.0625.125.125.25.21875.34375-.1875.0625-.375.0937-.625.125h-.46875c-.0625-.4375-.125-.8125-.1875-1.0938s-.34375-1.1562-1-1.3125c-.1875-.0625-.59375-.0937-1 .34375-.4375.4375-.53125 1.0625-.28125 1.625.21875.5.75 1 1.625 1.25.3125 2.625.59375 6.625.65625 7.625h.90625c-.0625-.84375-.3125-4.75-.625-7.4688h.375c.5 0 .9375-.125 1.3125-.375.375.21875.84375.34375 1.3125.375h.375c-.3125 2.7188-.5625 6.625-.625 7.4688h.90625c.0625-.90625.34375-4.9688.65625-7.625.875-.25 1.4062-.75 1.625-1.25.28125-.5625.1875-1.1875-.21875-1.625zm-7.375 1.25c-.0937-.21875-.0625-.46875.0937-.625l.0937-.0937c.125.0625.3125.40625.34375.625.0312.1875.0625.4375.125.6875-.375-.15625-.5625-.375-.65625-.59375zm3.5312-.0312c-.0312.0625-.0937.15625-.15625.21875-.0625-.0937-.125-.15625-.15625-.21875-.21875-.4375-.21875-.875-.0937-1.0625.0312-.0625.0937-.0937.1875-.0937h.0936c.125 0 .1875.0312.21875.0937.125.21875.15625.65625-.0937 1.0625zm3.2812.0312c-.0937.21875-.3125.4375-.65625.59375.0312-.25.0625-.5.125-.6875.0312-.21875.25-.59375.34375-.625 0 0 .0312 0 .0937.0937.15625.1875.1875.40625.0937.625z" fill="#495f6d" stroke-width=".3125"/>
<path d="m-166.62 221.91c0-.4375-.34375-.78125-.78125-.78125.4375 0 .78125-.34375.78125-.78125s-.34375-.78125-.78125-.78125h-6.875c-.4375 0-.78125.34375-.78125.78125s.34375.78125.78125.78125c-.4375 0-.78125.34375-.78125.78125s.34375.78125.78125.78125c-.4375 0-.78125.34375-.78125.78125s.34375.78125.78125.78125h.46875c0 .53125 1.3438 1.5625 1.875 1.5625h2.1875c.53125 0 1.875-1.0312 1.875-1.5625h.46875c.4375 0 .78125-.34375.78125-.78125s-.34375-.78125-.78125-.78125c.4375 0 .78125-.34375.78125-.78125z" fill="#ecf0f0" stroke-width=".3125"/>
<g transform="matrix(.3125 0 0 .3125 -131.31 132.69)">
	<defs>
		<path id="SVGID_2_" d="m-113 285.5c0-1.4-1.1-2.5-2.5-2.5 1.4 0 2.5-1.1 2.5-2.5s-1.1-2.5-2.5-2.5h-22c-1.4 0-2.5 1.1-2.5 2.5s1.1 2.5 2.5 2.5c-1.4 0-2.5 1.1-2.5 2.5s1.1 2.5 2.5 2.5c-1.4 0-2.5 1.1-2.5 2.5s1.1 2.5 2.5 2.5h1.5c0 1.7 4.3 5 6 5h7c1.7 0 6-3.3 6-5h1.5c1.4 0 2.5-1.1 2.5-2.5s-1.1-2.5-2.5-2.5c1.4 0 2.5-1.1 2.5-2.5z"/>
	</defs>
	<clipPath id="SVGID_3_">
		<use overflow="visible" xlink:href="#SVGID_2_"/>
	</clipPath>
	<path d="m-140 278v2h27v-2zm0 7h27v-2h-27zm0 5h27v-2h-27zm0 8h27v-5h-27z" clip-path="url(#SVGID_3_)" fill="#d0d4d4"/>
</g>
</svg>
