<?xml version="1.0" encoding="UTF-8"?>
<!-- Generator: Adobe Illustrator 18.1.0, SVG Export Plug-In . SVG Version: 6.00 Build 0)  -->
<svg width="40" height="40" enable-background="new -2335 1041 512 512" version="1.1" viewBox="-2335 1041 40 40" xml:space="preserve" xmlns="http://www.w3.org/2000/svg">
<g transform="matrix(.078125 0 0 .078125 -2152.6 959.67)">
	<g>
		<circle cx="-2079" cy="1297" r="256" fill="#4cafe2"/>
	</g>
	<g>
		<g>
			<g>
				<g>
					<circle cx="-2169.5" cy="1211.5" r="64" fill="#e1e1e2"/>
				</g>
			</g>
			<g>
				<g>
					
						<rect transform="matrix(-.7071 .7071 -.7071 -.7071 -2901.6 3579.5)" x="-2216.1" y="1156.8" width="48" height="64" fill="#4cafe2"/>
				</g>
			</g>
			<g>
				<circle cx="-1965.9" cy="1415.1" r="32" fill="#e1e1e2"/>
			</g>
			<g>
				
					<rect transform="matrix(-.7071 .7071 -.7071 -.7071 -2601.1 3704)" x="-2099.7" y="1169.3" width="64" height="288" fill="#e1e1e2"/>
			</g>
			<g>
				<circle cx="-1965.9" cy="1415.1" r="24" fill="#4cafe2"/>
			</g>
		</g>
		<g>
			
				<rect transform="matrix(-.7071 .7071 -.7071 -.7071 -2601.1 3704)" x="-2091.7" y="1205.3" width="48" height="216" fill="#c4c3c4"/>
		</g>
		<g>
			<g>
				
					<rect transform="matrix(-.7071 -.7071 .7071 -.7071 -4633.6 820.41)" x="-2154.9" y="1273.9" width="16" height="192" fill="#fff"/>
			</g>
			<g>
				<polygon points="-2204.9 1408 -2189.3 1401 -2178 1412.3 -2185.1 1427.8 -2207.7 1444.8 -2221.8 1430.7" fill="#fff"/>
			</g>
			<g>
				
					<rect transform="matrix(.7071 .7071 -.7071 .7071 283.59 1783.5)" x="-2043.1" y="1162.1" width="64" height="144" fill="#213538"/>
			</g>
			<g>
				
					<rect transform="matrix(.7071 .7071 -.7071 .7071 308.19 1842.9)" x="-2094.5" y="1281.5" width="48" height="24" fill="#08191e"/>
			</g>
			<g>
				
					<rect transform="matrix(.7071 .7071 -.7071 .7071 309.36 1845.8)" x="-2105.4" y="1288.3" width="64" height="16" fill="#08191e"/>
			</g>
			<g>
				
					<rect transform="matrix(.7071 .7071 -.7071 .7071 258.99 1724.1)" x="-1975.7" y="1162.7" width="48" height="24" fill="#08191e"/>
			</g>
			<g>
				
					<rect transform="matrix(.7071 .7071 -.7071 .7071 260.16 1727)" x="-1986.5" y="1169.5" width="64" height="16" fill="#08191e"/>
			</g>
			<g>
				<path d="m-1937.6 1183.2c3.1-3.1 8.2-3.1 11.3 0s3.1 8.2 0 11.3-8.2 3.1-11.3 0-3.1-8.2 0-11.3z" fill="#08191e"/>
			</g>
			<g>
				<circle cx="-1965.9" cy="1154.9" r="8" fill="#08191e"/>
			</g>
		</g>
	</g>
</g>

</svg>
